# xmcd
#
# Track frame offsets:
#	150
#	29137
#	42254
#	59010
#	75893
#	90945
#	104145
#	119057
#	133490
#	150485
#	166232
#	191619
#	210292
#	224328
#	245521
#
# Disc length: 3504 seconds
#
# Revision: 2
# Processed by: cddbd v1.5.2PL0 Copyright (c) Steve Scherf et al.
# Submitted via: audiograbber 1.83.01
#
DISCID=d60dae0f
DTITLE=Various Artist - Jazz erlebt - CD 3 - Cotton Club Stomp
DYEAR=2003
DGENRE=Jazz
TTITLE0=Chick Webb - Dog Bottom
TTITLE1=Roy Johnson - Savoy Rhythm
TTITLE2=Fess Williams - Friction
TTITLE3=Charlie Johnson - The Boy In The Boat
TTITLE4=Charlie Johnson - Walk That Thing
TTITLE5=Duke Ellington - Cotton Club Stomp
TTITLE6=Duke Ellington - Jungle Nights In Harlem
TTITLE7=The Missourians - Ozark Mountain Blues
TTITLE8=The Missourians - Missouri Moan
TTITLE9=Luis Russell - Feelin' The Spirit
TTITLE10=Luis Russell - Doctor Blues
TTITLE11=Bill 'Bojangles' Robinson - Doin' The New Low Down
TTITLE12=Louis Armstrong - Black And Blue
TTITLE13=Louis Armstrong - Ain't Misbehavin
TTITLE14=Charlie Johnson - Hot Bones And Rice
EXTD=
EXTT0=
EXTT1=
EXTT2=
EXTT3=
EXTT4=
EXTT5=
EXTT6=
EXTT7=
EXTT8=
EXTT9=
EXTT10=
EXTT11=
EXTT12=
EXTT13=
EXTT14=
PLAYORDER=
